# xmcd
#
# Track frame offsets:
#	150
#	12623
#	25789
#	45841
#	61068
#	73871
#	89095
#	105979
#	120077
#	134255
#	149650
#	162543
#	178092
#	190775
#	206674
#
# Disc length: 2950 seconds
#
# Revision: 1
# Processed by: cddbd v1.5.2PL0 Copyright (c) Steve Scherf et al.
# Submitted via: audiograbber 1.83.01
#
DISCID=d10b840f
DTITLE=diverse - Country Music - Made in Germany
DYEAR=2007
DGENRE=Country
TTITLE0=Truck Stop - Der wilde, wilde Westen
TTITLE1=Linda Feller - Wenn überhaupt...
TTITLE2=Jonny Hill - Hallo Teddybär
TTITLE3=Gunter Gabriel - Truck Stop, Tom Astor und ich
TTITLE4=Country Roads - Dagegen hilft nur Country Music
TTITLE5=Dagmar - Darf ein Truck mit seinem Fahrer in den Himmel
TTITLE6=Larry Schuba and Western Union - Mensch, waren das noch Zeiten
TTITLE7=Muck - Die richtige Frau
TTITLE8=Iris McCollins - Liebeskrank
TTITLE9=Joe Hodgkins Boss Band - Nimm dir Zeit für deine Freunde
TTITLE10=Hanna and Daana - Du musst das Leben eben nehmen ..
TTITLE11=Greyhounds - Wenn die Lichter angeh'n am Highway
TTITLE12=Country Rose - Du bist das Feuer tief in meiner Seele
TTITLE13=Truck Stop - Ich möcht' so gern Dave Dudley hör'n
TTITLE14=Linda Feller and Jonny Hill - Darling
EXTD=
EXTT0=
EXTT1=
EXTT2=
EXTT3=
EXTT4=
EXTT5=
EXTT6=
EXTT7=
EXTT8=
EXTT9=
EXTT10=
EXTT11=
EXTT12=
EXTT13=
EXTT14=
PLAYORDER=
